<svg width="143" height="42" viewBox="0 0 143 42" fill="none" xmlns="http://www.w3.org/2000/svg">
<g clip-path="url(#clip0)">
<path d="M7.45981 18.477L9.13973 12.5552C9.37684 11.7164 9.51305 11.2543 9.79556 11.2543C10.0781 11.2543 10.2143 11.6712 10.406 12.4145L12.4239 19.4464C12.5183 19.7316 12.566 20.0301 12.5652 20.3304C12.5652 20.5614 12.2372 20.7924 11.6268 20.7924H7.84322C7.67152 20.8081 7.50011 20.7597 7.36217 20.6567C7.22424 20.5537 7.1296 20.4034 7.09659 20.2349C7.14649 19.6366 7.26844 19.0464 7.45981 18.477ZM4.93741 27.4375L5.9161 23.5399C6.28942 22.0984 6.38527 22.0984 8.07023 22.0984H11.4856C13.0747 22.0984 13.2613 22.47 13.5892 23.6052L14.9816 28.9644C15.108 29.4021 15.1725 29.8551 15.1733 30.3105C15.1733 31.0539 14.9816 31.2849 14.0483 31.516C13.2058 31.7018 12.6459 31.6114 12.6459 32.1639C12.6459 32.4853 12.9738 32.6662 13.4884 32.6662C13.7709 32.6662 15.0775 32.5758 17.4637 32.5758C19.8498 32.5758 21.3431 32.621 21.7164 32.621C22.2764 32.621 22.5085 32.5758 22.5085 32.1187C22.5085 31.516 21.5752 31.7018 20.8739 31.2849C20.0315 30.8228 19.7036 29.3813 18.9569 26.9252L12.1061 3.79555C11.9194 3.0974 11.7328 2.86133 11.2636 2.86133C10.7944 2.86133 10.6582 3.28324 10.3757 4.16724L3.20704 28.5475C2.73788 30.0543 2.26871 31.0087 1.52208 31.3301C0.775446 31.6516 0.0742188 31.4255 0.0742188 32.0735C0.0742188 32.7214 0.503027 32.6712 1.89539 32.6712C2.73788 32.6712 3.48451 32.5808 4.04448 32.5808C5.8253 32.5808 6.84939 32.7164 7.1319 32.7164C7.63638 32.7164 7.87853 32.5305 7.87853 32.1639C7.87853 31.4708 7.1319 31.7018 6.10276 31.4255C5.07362 31.1493 4.6549 30.7274 4.6549 29.753C4.65696 28.9728 4.75179 28.1955 4.93741 27.4375Z" fill="#00305D"/>
<path d="M35.4884 15.0667C35.4884 16.1868 35.438 16.5083 34.8326 16.5083C34.0406 16.5083 33.9952 15.6695 33.531 14.5544C32.7895 12.8115 31.7805 11.9727 30.2671 11.9727C28.2491 11.9727 26.7912 13.3691 26.7912 15.0918C26.7676 15.6691 26.9245 16.2394 27.2402 16.7242C28.3198 18.3516 30.8573 19.1 33.3898 20.868C35.4884 22.3095 36.5579 24.1729 36.5579 26.5035C36.5579 30.5568 33.4806 33.2992 28.6981 33.2992C24.7733 33.2992 23.7996 32.6965 23.7996 30.8331V27.7592C23.7996 26.6441 23.7996 26.1318 24.4504 26.1318C25.0104 26.1318 25.2878 26.5035 25.6107 27.2971C26.771 30.1851 27.4319 32.1842 29.9644 32.1842C31.9369 32.1842 33.299 30.7427 33.299 28.3669C33.3198 27.6456 33.1789 26.9287 32.8866 26.2684C32.5942 25.6081 32.1578 25.021 31.609 24.5496C30.2671 23.2889 27.7447 22.4501 25.5199 20.6821C24.9615 20.2345 24.5125 19.6664 24.2066 19.0209C23.9008 18.3753 23.7461 17.669 23.7542 16.9553C23.7542 13.5549 26.6348 10.9531 31.044 10.9531C34.0708 10.9531 35.4884 11.37 35.4884 12.3444V15.0667Z" fill="#00305D"/>
<path d="M40.4491 5.02188C40.4491 4.04748 40.3583 3.81643 39.7478 3.6758C39.1374 3.53516 38.5774 3.63059 38.5774 3.25891C38.5774 2.56075 39.5864 2.60596 40.777 2.00323C42.9765 0.842981 43.8039 -0.00585938 44.0561 -0.00585938C44.3083 -0.00585938 44.3941 0.185004 44.3941 0.551663V13.2692C44.3941 13.5957 44.4395 13.8267 44.6262 13.8267C44.8128 13.8267 45.2366 13.3646 46.1396 12.6665C47.4008 11.6619 48.5712 11.0039 50.3924 11.0039C54.6451 11.0039 56.098 13.455 56.098 18.5782V28.9552C56.098 30.462 56.098 31.0546 56.9859 31.4665C57.6418 31.7478 58.575 31.4213 58.575 32.1596C58.575 32.6619 58.0706 32.7121 56.7993 32.7121C56.1434 32.7121 55.2858 32.6669 54.2769 32.6669C53.5302 32.6669 52.9198 32.7121 52.5465 32.7121C52.1732 32.7121 51.704 32.6669 50.9574 32.6669C50.4529 32.6669 50.2108 32.5765 50.2108 32.2501C50.2108 31.5117 51.0028 31.7478 51.472 31.4665C52.1681 31.0496 52.1681 30.3464 52.1681 29.0456V17.7846C52.1681 14.5249 51.2349 12.9879 48.667 12.9879C45.6452 12.9879 44.3941 14.7609 44.3941 18.4828V29.7487C44.3941 30.9592 44.5808 31.4715 45.3274 31.6574C45.9832 31.798 46.5432 31.6122 46.5432 32.1596C46.5432 32.5765 46.3061 32.7121 45.842 32.7121C45.6553 32.7121 44.5808 32.6669 42.6587 32.6669C40.6408 32.6669 39.5713 32.7121 39.3392 32.7121C38.6834 32.7121 38.3555 32.5263 38.3555 32.1144C38.3555 31.6122 38.8246 31.6122 39.6167 31.3711C40.2271 31.1852 40.4592 30.4419 40.4592 29.2314L40.4491 5.02188Z" fill="#00305D"/>
<path d="M70.7501 12.989C67.7585 12.989 66.4519 14.762 66.4569 18.514V29.7549C66.4569 30.9603 66.689 31.4726 67.4356 31.6585C68.0914 31.7991 68.6514 31.6133 68.6514 32.1607C68.6514 32.5776 68.4194 32.7132 67.9502 32.7132C67.7635 32.7132 66.689 32.668 64.772 32.668C62.754 32.668 61.6341 32.7132 61.402 32.7132C60.7462 32.7132 60.4688 32.5274 60.4688 32.1155C60.4688 31.6133 60.8875 31.6133 61.6845 31.3722C62.2899 31.1863 62.5724 30.443 62.5724 29.2375V15.8218C62.5724 14.8474 62.4312 14.6113 61.8208 14.4757C61.2103 14.3401 60.7008 14.4757 60.7008 14.1041C60.7008 13.6018 61.4979 13.3105 62.9003 12.5671C64.7266 11.5977 65.3824 10.8594 65.6598 10.8594C65.9373 10.8594 65.9878 11.0452 65.9827 11.3616V13.1196C65.9827 13.4461 66.0281 13.6821 66.0281 13.7726C66.031 13.8389 66.0558 13.9024 66.0987 13.9533C66.1416 14.0042 66.2001 14.0395 66.2652 14.0538C66.4973 14.0538 66.916 13.5516 67.7787 12.8886C69.3224 11.6881 70.7248 10.995 72.546 10.995C74.6043 10.995 75.7747 11.7785 77.1317 13.2602C77.5051 13.6821 77.6917 14.0036 77.9288 14.0036C78.2567 14.0036 78.6754 13.5415 79.5179 12.8886C81.0314 11.6429 82.5044 10.995 84.1844 10.995C88.3968 10.995 89.8951 13.5064 89.8951 18.5693V28.9562C89.8951 30.4631 89.8951 31.0557 90.783 31.4676C91.4388 31.7489 92.3721 31.4224 92.3721 32.1607C92.3721 32.663 91.8121 32.7132 90.5509 32.7132C89.8951 32.7132 89.0375 32.668 88.0285 32.668C87.2768 32.668 86.7169 32.7132 86.3385 32.7132C85.9601 32.7132 85.4506 32.668 84.704 32.668C84.1995 32.668 83.9574 32.5776 83.9574 32.2511C83.9574 31.5128 84.7544 31.7489 85.2186 31.4676C85.9198 31.0507 85.9652 30.3475 85.9652 29.0467V17.7857C85.9652 14.526 85.0319 12.989 82.4641 12.989C79.4725 12.989 78.1659 14.762 78.1659 18.4839V29.7498C78.1659 30.9603 78.403 31.4726 79.1749 31.6585C79.8257 31.7991 80.3856 31.6133 80.3856 32.1607C80.3856 32.5776 80.1536 32.7132 79.6844 32.7132C79.4977 32.7132 78.4282 32.668 76.5062 32.668C74.4883 32.668 73.4188 32.7132 73.1867 32.7132C72.5309 32.7132 72.203 32.5274 72.203 32.1155C72.203 31.6133 72.6217 31.6133 73.4188 31.3722C74.0241 31.1863 74.3066 30.443 74.3066 29.2325V17.6802C74.2562 14.526 73.2271 12.989 70.7501 12.989Z" fill="#00305D"/>
<path d="M102.345 31.8984C99.959 31.8984 98.037 28.1766 98.037 21.8881C98.037 15.5997 99.8178 11.9733 102.249 11.9733C104.681 11.9733 106.608 15.6951 106.608 22.2146C106.608 28.3172 104.782 31.8984 102.345 31.8984ZM93.7539 22.0991C93.7539 25.7305 94.6822 28.4779 96.7354 30.6377C98.4607 32.4057 100.564 33.3851 102.391 33.3851C104.313 33.3851 106.467 32.2651 108.142 30.2158C109.912 28.0761 110.795 25.3287 110.795 22.1141C110.795 15.4138 106.84 10.9436 102.249 10.9436C97.8049 10.9034 93.7539 15.6047 93.7539 22.0991Z" fill="#00305D"/>
<path d="M115.097 15.8252C115.097 14.8508 114.956 14.6147 114.35 14.4791C113.745 14.3435 113.18 14.4791 113.18 14.1024C113.18 13.6001 114.022 13.3138 115.425 12.5956C117.251 11.6212 117.907 10.8828 118.189 10.8828C118.472 10.8828 118.517 11.0687 118.517 11.4102V14.68C118.517 14.8206 118.704 14.911 118.795 14.911C119.168 14.911 119.496 14.2129 120.308 13.2334C121.428 11.8321 122.553 11.1289 123.84 11.1289C125.52 11.1289 126.549 12.2038 126.549 14.1677C126.549 15.8854 125.706 16.8649 124.49 16.8649C123.275 16.8649 122.811 16.3978 122.578 15.2375C122.437 14.6348 122.483 14.027 121.923 14.027C120.288 14.027 119.022 16.5384 119.022 20.9483V29.7532C119.022 30.9586 119.259 31.4709 120.031 31.6568C120.687 31.7974 121.201 31.6116 121.201 32.1591C121.201 32.5759 121.015 32.7116 120.545 32.7116C120.359 32.7116 119.284 32.6664 117.362 32.6664C115.344 32.6664 114.229 32.7116 113.997 32.7116C113.341 32.7116 112.988 32.5257 112.988 32.1139C112.988 31.6116 113.457 31.6116 114.249 31.3705C114.86 31.1847 115.137 30.4413 115.137 29.2358L115.097 15.8252Z" fill="#00305D"/>
<path d="M136.34 11.8728C137.98 11.8728 139.246 13.6961 139.246 16.7348C139.246 19.3567 138.237 19.7485 133.762 19.7485C132.355 19.7485 131.84 19.5124 131.84 18.6284C131.972 16.9543 132.503 15.3357 133.389 13.907C134.231 12.5559 135.17 11.8728 136.34 11.8728ZM139.15 20.748H140.976C142.752 20.748 142.848 20.6074 142.848 18.9348C142.848 13.8367 140.23 10.8984 136.249 10.8984C131.205 10.8984 127.512 15.6098 127.512 22.6466C127.512 28.925 131.139 33.3952 135.826 33.3952C140.043 33.3952 142.984 30.0451 142.984 27.9506C142.984 27.5789 142.848 27.3479 142.52 27.3479C141.819 27.3479 141.819 28.4177 141.072 29.2967C140.611 29.8531 140.032 30.3004 139.375 30.6062C138.719 30.912 138.003 31.0686 137.278 31.0647C133.949 31.0647 131.699 27.7647 131.699 22.2749C131.699 20.8786 131.936 20.7681 133.248 20.7681H139.15V20.748Z" fill="#00305D"/>
<path d="M143 37.7305H0V41.9998H143V37.7305Z" fill="url(#paint0_linear)"/>
</g>
<defs>
<linearGradient id="paint0_linear" x1="0" y1="39.8651" x2="143" y2="39.8651" gradientUnits="userSpaceOnUse">
<stop stop-color="#D9EFFB"/>
<stop offset="0.1" stop-color="#D0ECFA"/>
<stop offset="0.25" stop-color="#B8E4F6"/>
<stop offset="0.45" stop-color="#90D7F1"/>
<stop offset="0.68" stop-color="#59C5E9"/>
<stop offset="0.93" stop-color="#13AEE0"/>
<stop offset="1" stop-color="#00A8DD"/>
</linearGradient>
<clipPath id="clip0">
<rect width="143" height="42" fill="white"/>
</clipPath>
</defs>
</svg>
